<mxfile host="Electron" agent="Mozilla/5.0 (Windows NT 10.0; Win64; x64) AppleWebKit/537.36 (KHTML, like Gecko) draw.io/27.0.9 Chrome/134.0.6998.205 Electron/35.4.0 Safari/537.36" version="27.0.9">
  <diagram id="R2lEEEUBdFMjLlhIrx00" name="Page-1">
    <mxGraphModel dx="3186" dy="1002" grid="1" gridSize="10" guides="1" tooltips="1" connect="1" arrows="1" fold="1" page="1" pageScale="1" pageWidth="850" pageHeight="1100" math="0" shadow="0" extFonts="Permanent Marker^https://fonts.googleapis.com/css?family=Permanent+Marker">
      <root>
        <mxCell id="0" />
        <mxCell id="1" parent="0" />
        <mxCell id="UDIB14FkJ_S7tFAtck5r-1" value="User" style="rounded=0;whiteSpace=wrap;html=1;fontSize=16;" parent="1" vertex="1">
          <mxGeometry x="320" y="290" width="120" height="60" as="geometry" />
        </mxCell>
        <mxCell id="UDIB14FkJ_S7tFAtck5r-2" value="LastName" style="ellipse;whiteSpace=wrap;html=1;fontSize=16;" parent="1" vertex="1">
          <mxGeometry x="80" y="166" width="120" height="80" as="geometry" />
        </mxCell>
        <mxCell id="UDIB14FkJ_S7tFAtck5r-3" value="ID" style="ellipse;whiteSpace=wrap;html=1;fontSize=16;" parent="1" vertex="1">
          <mxGeometry x="210" y="106" width="120" height="80" as="geometry" />
        </mxCell>
        <mxCell id="UDIB14FkJ_S7tFAtck5r-4" value="password" style="ellipse;whiteSpace=wrap;html=1;fontSize=16;" parent="1" vertex="1">
          <mxGeometry x="350" y="106" width="120" height="80" as="geometry" />
        </mxCell>
        <mxCell id="UDIB14FkJ_S7tFAtck5r-5" value="Email" style="ellipse;whiteSpace=wrap;html=1;fontSize=16;" parent="1" vertex="1">
          <mxGeometry x="490" y="116" width="120" height="80" as="geometry" />
        </mxCell>
        <mxCell id="UDIB14FkJ_S7tFAtck5r-6" value="Phone Number" style="ellipse;whiteSpace=wrap;html=1;fontSize=16;" parent="1" vertex="1">
          <mxGeometry x="620" y="160" width="120" height="80" as="geometry" />
        </mxCell>
        <mxCell id="UDIB14FkJ_S7tFAtck5r-7" value="FirstName" style="ellipse;whiteSpace=wrap;html=1;fontSize=16;" parent="1" vertex="1">
          <mxGeometry x="10" y="246" width="120" height="80" as="geometry" />
        </mxCell>
        <mxCell id="UDIB14FkJ_S7tFAtck5r-9" value="Role" style="ellipse;whiteSpace=wrap;html=1;fontSize=16;" parent="1" vertex="1">
          <mxGeometry x="710" y="340" width="120" height="80" as="geometry" />
        </mxCell>
        <mxCell id="UDIB14FkJ_S7tFAtck5r-10" value="Address" style="ellipse;whiteSpace=wrap;html=1;fontSize=16;" parent="1" vertex="1">
          <mxGeometry x="97" y="320" width="120" height="80" as="geometry" />
        </mxCell>
        <mxCell id="UDIB14FkJ_S7tFAtck5r-11" value="Gender" style="ellipse;whiteSpace=wrap;html=1;fontSize=16;" parent="1" vertex="1">
          <mxGeometry x="690" y="246" width="120" height="80" as="geometry" />
        </mxCell>
        <mxCell id="UDIB14FkJ_S7tFAtck5r-12" value="" style="endArrow=none;html=1;rounded=0;entryX=0.5;entryY=1;entryDx=0;entryDy=0;fontSize=16;" parent="1" target="UDIB14FkJ_S7tFAtck5r-4" edge="1">
          <mxGeometry width="50" height="50" relative="1" as="geometry">
            <mxPoint x="380" y="290" as="sourcePoint" />
            <mxPoint x="440" y="240" as="targetPoint" />
          </mxGeometry>
        </mxCell>
        <mxCell id="UDIB14FkJ_S7tFAtck5r-13" value="" style="endArrow=none;html=1;rounded=0;entryX=0.5;entryY=1;entryDx=0;entryDy=0;exitX=0.5;exitY=0;exitDx=0;exitDy=0;fontSize=16;" parent="1" source="UDIB14FkJ_S7tFAtck5r-1" edge="1">
          <mxGeometry width="50" height="50" relative="1" as="geometry">
            <mxPoint x="270" y="290" as="sourcePoint" />
            <mxPoint x="290" y="186" as="targetPoint" />
          </mxGeometry>
        </mxCell>
        <mxCell id="UDIB14FkJ_S7tFAtck5r-14" value="" style="endArrow=none;html=1;rounded=0;entryX=1;entryY=0.634;entryDx=0;entryDy=0;exitX=0.5;exitY=0;exitDx=0;exitDy=0;entryPerimeter=0;fontSize=16;" parent="1" source="UDIB14FkJ_S7tFAtck5r-1" target="UDIB14FkJ_S7tFAtck5r-2" edge="1">
          <mxGeometry width="50" height="50" relative="1" as="geometry">
            <mxPoint x="280" y="320" as="sourcePoint" />
            <mxPoint x="190" y="216" as="targetPoint" />
          </mxGeometry>
        </mxCell>
        <mxCell id="UDIB14FkJ_S7tFAtck5r-15" value="" style="endArrow=none;html=1;rounded=0;entryX=1;entryY=0.5;entryDx=0;entryDy=0;exitX=0;exitY=0.5;exitDx=0;exitDy=0;fontSize=16;" parent="1" source="UDIB14FkJ_S7tFAtck5r-1" target="UDIB14FkJ_S7tFAtck5r-7" edge="1">
          <mxGeometry width="50" height="50" relative="1" as="geometry">
            <mxPoint x="400" y="383.28" as="sourcePoint" />
            <mxPoint x="220" y="310.28" as="targetPoint" />
          </mxGeometry>
        </mxCell>
        <mxCell id="UDIB14FkJ_S7tFAtck5r-16" value="" style="endArrow=none;html=1;rounded=0;entryX=1;entryY=0;entryDx=0;entryDy=0;exitX=0;exitY=0.5;exitDx=0;exitDy=0;fontSize=16;" parent="1" source="UDIB14FkJ_S7tFAtck5r-1" target="UDIB14FkJ_S7tFAtck5r-10" edge="1">
          <mxGeometry width="50" height="50" relative="1" as="geometry">
            <mxPoint x="410" y="380" as="sourcePoint" />
            <mxPoint x="290" y="380" as="targetPoint" />
          </mxGeometry>
        </mxCell>
        <mxCell id="UDIB14FkJ_S7tFAtck5r-21" value="" style="endArrow=none;html=1;rounded=0;entryX=0.5;entryY=1;entryDx=0;entryDy=0;exitX=0;exitY=0.5;exitDx=0;exitDy=0;fontSize=16;" parent="1" source="UDIB14FkJ_S7tFAtck5r-9" target="UDIB14FkJ_S7tFAtck5r-1" edge="1">
          <mxGeometry width="50" height="50" relative="1" as="geometry">
            <mxPoint x="480" y="400" as="sourcePoint" />
            <mxPoint x="485" y="340" as="targetPoint" />
          </mxGeometry>
        </mxCell>
        <mxCell id="UDIB14FkJ_S7tFAtck5r-22" value="" style="endArrow=none;html=1;rounded=0;entryX=0.333;entryY=0.934;entryDx=0;entryDy=0;entryPerimeter=0;exitX=0.5;exitY=0;exitDx=0;exitDy=0;fontSize=16;" parent="1" source="UDIB14FkJ_S7tFAtck5r-1" target="UDIB14FkJ_S7tFAtck5r-5" edge="1">
          <mxGeometry width="50" height="50" relative="1" as="geometry">
            <mxPoint x="450" y="280" as="sourcePoint" />
            <mxPoint x="500" y="230" as="targetPoint" />
          </mxGeometry>
        </mxCell>
        <mxCell id="UDIB14FkJ_S7tFAtck5r-23" value="" style="endArrow=none;html=1;rounded=0;exitX=1;exitY=0.5;exitDx=0;exitDy=0;entryX=0.026;entryY=0.701;entryDx=0;entryDy=0;entryPerimeter=0;fontSize=16;" parent="1" source="UDIB14FkJ_S7tFAtck5r-1" target="UDIB14FkJ_S7tFAtck5r-6" edge="1">
          <mxGeometry width="50" height="50" relative="1" as="geometry">
            <mxPoint x="460" y="330" as="sourcePoint" />
            <mxPoint x="510" y="280" as="targetPoint" />
          </mxGeometry>
        </mxCell>
        <mxCell id="UDIB14FkJ_S7tFAtck5r-24" value="" style="endArrow=none;html=1;rounded=0;exitX=1;exitY=0.5;exitDx=0;exitDy=0;entryX=0;entryY=0.5;entryDx=0;entryDy=0;fontSize=16;" parent="1" source="UDIB14FkJ_S7tFAtck5r-1" target="UDIB14FkJ_S7tFAtck5r-11" edge="1">
          <mxGeometry width="50" height="50" relative="1" as="geometry">
            <mxPoint x="510" y="513.92" as="sourcePoint" />
            <mxPoint x="653" y="459.91999999999996" as="targetPoint" />
          </mxGeometry>
        </mxCell>
        <mxCell id="PO8PJyuL3kDX_Ksygov9-29" style="edgeStyle=orthogonalEdgeStyle;rounded=0;orthogonalLoop=1;jettySize=auto;html=1;exitX=0.5;exitY=1;exitDx=0;exitDy=0;entryX=1;entryY=0.5;entryDx=0;entryDy=0;" parent="1" source="UDIB14FkJ_S7tFAtck5r-25" target="PO8PJyuL3kDX_Ksygov9-22" edge="1">
          <mxGeometry relative="1" as="geometry" />
        </mxCell>
        <mxCell id="UDIB14FkJ_S7tFAtck5r-25" value="Course" style="rounded=0;whiteSpace=wrap;html=1;fontSize=16;" parent="1" vertex="1">
          <mxGeometry x="332" y="1165" width="120" height="60" as="geometry" />
        </mxCell>
        <mxCell id="UDIB14FkJ_S7tFAtck5r-26" value="Title" style="ellipse;whiteSpace=wrap;html=1;fontSize=16;" parent="1" vertex="1">
          <mxGeometry x="235" y="990" width="120" height="80" as="geometry" />
        </mxCell>
        <mxCell id="UDIB14FkJ_S7tFAtck5r-27" value="ID" style="ellipse;whiteSpace=wrap;html=1;fontSize=16;" parent="1" vertex="1">
          <mxGeometry x="480" y="990" width="120" height="80" as="geometry" />
        </mxCell>
        <mxCell id="UDIB14FkJ_S7tFAtck5r-31" value="Description" style="ellipse;whiteSpace=wrap;html=1;fontSize=16;" parent="1" vertex="1">
          <mxGeometry x="135" y="1060" width="120" height="80" as="geometry" />
        </mxCell>
        <mxCell id="UDIB14FkJ_S7tFAtck5r-34" value="Duration" style="ellipse;whiteSpace=wrap;html=1;fontSize=16;" parent="1" vertex="1">
          <mxGeometry x="570" y="1070" width="120" height="80" as="geometry" />
        </mxCell>
        <mxCell id="UDIB14FkJ_S7tFAtck5r-37" value="" style="endArrow=none;html=1;rounded=0;exitX=0.5;exitY=0;exitDx=0;exitDy=0;fontSize=16;" parent="1" source="UDIB14FkJ_S7tFAtck5r-25" target="UDIB14FkJ_S7tFAtck5r-27" edge="1">
          <mxGeometry width="50" height="50" relative="1" as="geometry">
            <mxPoint x="282" y="1165" as="sourcePoint" />
            <mxPoint x="312" y="1071" as="targetPoint" />
          </mxGeometry>
        </mxCell>
        <mxCell id="UDIB14FkJ_S7tFAtck5r-38" value="" style="endArrow=none;html=1;rounded=0;exitX=0.5;exitY=0;exitDx=0;exitDy=0;fontSize=16;" parent="1" source="UDIB14FkJ_S7tFAtck5r-25" target="UDIB14FkJ_S7tFAtck5r-26" edge="1">
          <mxGeometry width="50" height="50" relative="1" as="geometry">
            <mxPoint x="292" y="1195" as="sourcePoint" />
            <mxPoint x="202" y="1091" as="targetPoint" />
          </mxGeometry>
        </mxCell>
        <mxCell id="UDIB14FkJ_S7tFAtck5r-39" value="" style="endArrow=none;html=1;rounded=0;entryX=1;entryY=0.5;entryDx=0;entryDy=0;exitX=0;exitY=0.5;exitDx=0;exitDy=0;fontSize=16;" parent="1" source="UDIB14FkJ_S7tFAtck5r-25" target="UDIB14FkJ_S7tFAtck5r-31" edge="1">
          <mxGeometry width="50" height="50" relative="1" as="geometry">
            <mxPoint x="412" y="1258.28" as="sourcePoint" />
            <mxPoint x="232" y="1185.28" as="targetPoint" />
          </mxGeometry>
        </mxCell>
        <mxCell id="UDIB14FkJ_S7tFAtck5r-40" value="" style="endArrow=none;html=1;rounded=0;exitX=1;exitY=0.5;exitDx=0;exitDy=0;entryX=0;entryY=0.5;entryDx=0;entryDy=0;fontSize=16;" parent="1" source="UDIB14FkJ_S7tFAtck5r-25" target="UDIB14FkJ_S7tFAtck5r-34" edge="1">
          <mxGeometry width="50" height="50" relative="1" as="geometry">
            <mxPoint x="422" y="1255" as="sourcePoint" />
            <mxPoint x="302" y="1255" as="targetPoint" />
          </mxGeometry>
        </mxCell>
        <mxCell id="UDIB14FkJ_S7tFAtck5r-47" value="Skills" style="ellipse;shape=doubleEllipse;margin=3;whiteSpace=wrap;html=1;align=center;fontSize=16;" parent="1" vertex="1">
          <mxGeometry x="135" y="1165" width="130" height="90" as="geometry" />
        </mxCell>
        <mxCell id="UDIB14FkJ_S7tFAtck5r-48" value="&lt;code data-start=&quot;747&quot; data-end=&quot;757&quot;&gt;Language&lt;/code&gt;" style="ellipse;whiteSpace=wrap;html=1;fontSize=16;" parent="1" vertex="1">
          <mxGeometry x="602" y="1175" width="120" height="80" as="geometry" />
        </mxCell>
        <mxCell id="UDIB14FkJ_S7tFAtck5r-49" value="Category" style="ellipse;shape=doubleEllipse;margin=3;whiteSpace=wrap;html=1;align=center;fontSize=16;" parent="1" vertex="1">
          <mxGeometry x="605" y="1300" width="130" height="90" as="geometry" />
        </mxCell>
        <mxCell id="UDIB14FkJ_S7tFAtck5r-51" value="" style="endArrow=none;html=1;rounded=0;exitX=1;exitY=0;exitDx=0;exitDy=0;entryX=0;entryY=0.5;entryDx=0;entryDy=0;fontSize=16;" parent="1" source="UDIB14FkJ_S7tFAtck5r-47" target="UDIB14FkJ_S7tFAtck5r-25" edge="1">
          <mxGeometry width="50" height="50" relative="1" as="geometry">
            <mxPoint x="278.45" y="1388.21" as="sourcePoint" />
            <mxPoint x="242.45" y="1331.21" as="targetPoint" />
          </mxGeometry>
        </mxCell>
        <mxCell id="UDIB14FkJ_S7tFAtck5r-52" value="" style="endArrow=none;html=1;rounded=0;entryX=0.5;entryY=1;entryDx=0;entryDy=0;fontSize=16;" parent="1" source="UDIB14FkJ_S7tFAtck5r-49" target="UDIB14FkJ_S7tFAtck5r-25" edge="1">
          <mxGeometry width="50" height="50" relative="1" as="geometry">
            <mxPoint x="202" y="1387" as="sourcePoint" />
            <mxPoint x="302" y="1371" as="targetPoint" />
          </mxGeometry>
        </mxCell>
        <mxCell id="UDIB14FkJ_S7tFAtck5r-55" value="" style="endArrow=none;html=1;rounded=0;entryX=0;entryY=0.5;entryDx=0;entryDy=0;fontSize=16;" parent="1" source="UDIB14FkJ_S7tFAtck5r-25" target="UDIB14FkJ_S7tFAtck5r-48" edge="1">
          <mxGeometry width="50" height="50" relative="1" as="geometry">
            <mxPoint x="500" y="1210" as="sourcePoint" />
            <mxPoint x="582" y="1401" as="targetPoint" />
          </mxGeometry>
        </mxCell>
        <mxCell id="UDIB14FkJ_S7tFAtck5r-56" value="mediaFile" style="rounded=0;whiteSpace=wrap;html=1;fontSize=16;" parent="1" vertex="1">
          <mxGeometry x="862" y="2062" width="120" height="60" as="geometry" />
        </mxCell>
        <mxCell id="UDIB14FkJ_S7tFAtck5r-57" value="Name" style="ellipse;whiteSpace=wrap;html=1;fontSize=16;" parent="1" vertex="1">
          <mxGeometry x="722" y="1928" width="120" height="80" as="geometry" />
        </mxCell>
        <mxCell id="UDIB14FkJ_S7tFAtck5r-58" value="ID" style="ellipse;whiteSpace=wrap;html=1;fontSize=16;" parent="1" vertex="1">
          <mxGeometry x="862" y="1918" width="120" height="80" as="geometry" />
        </mxCell>
        <mxCell id="UDIB14FkJ_S7tFAtck5r-59" value="Path" style="ellipse;whiteSpace=wrap;html=1;fontSize=16;" parent="1" vertex="1">
          <mxGeometry x="632" y="2008" width="120" height="80" as="geometry" />
        </mxCell>
        <mxCell id="UDIB14FkJ_S7tFAtck5r-60" value="CreateDate" style="ellipse;whiteSpace=wrap;html=1;fontSize=16;" parent="1" vertex="1">
          <mxGeometry x="1002" y="1928" width="120" height="80" as="geometry" />
        </mxCell>
        <mxCell id="UDIB14FkJ_S7tFAtck5r-61" value="" style="endArrow=none;html=1;rounded=0;exitX=0.5;exitY=0;exitDx=0;exitDy=0;fontSize=16;" parent="1" source="UDIB14FkJ_S7tFAtck5r-56" target="UDIB14FkJ_S7tFAtck5r-58" edge="1">
          <mxGeometry width="50" height="50" relative="1" as="geometry">
            <mxPoint x="812" y="2062" as="sourcePoint" />
            <mxPoint x="842" y="1968" as="targetPoint" />
          </mxGeometry>
        </mxCell>
        <mxCell id="UDIB14FkJ_S7tFAtck5r-62" value="" style="endArrow=none;html=1;rounded=0;exitX=0.5;exitY=0;exitDx=0;exitDy=0;fontSize=16;" parent="1" source="UDIB14FkJ_S7tFAtck5r-56" target="UDIB14FkJ_S7tFAtck5r-57" edge="1">
          <mxGeometry width="50" height="50" relative="1" as="geometry">
            <mxPoint x="822" y="2092" as="sourcePoint" />
            <mxPoint x="732" y="1988" as="targetPoint" />
          </mxGeometry>
        </mxCell>
        <mxCell id="UDIB14FkJ_S7tFAtck5r-63" value="" style="endArrow=none;html=1;rounded=0;entryX=1.003;entryY=0.62;entryDx=0;entryDy=0;exitX=0;exitY=0.5;exitDx=0;exitDy=0;entryPerimeter=0;fontSize=16;" parent="1" source="UDIB14FkJ_S7tFAtck5r-56" target="UDIB14FkJ_S7tFAtck5r-59" edge="1">
          <mxGeometry width="50" height="50" relative="1" as="geometry">
            <mxPoint x="942" y="2155.2799999999997" as="sourcePoint" />
            <mxPoint x="762" y="2082.2799999999997" as="targetPoint" />
          </mxGeometry>
        </mxCell>
        <mxCell id="UDIB14FkJ_S7tFAtck5r-64" value="" style="endArrow=none;html=1;rounded=0;exitX=0.5;exitY=0;exitDx=0;exitDy=0;entryX=0.065;entryY=0.801;entryDx=0;entryDy=0;entryPerimeter=0;fontSize=16;" parent="1" source="UDIB14FkJ_S7tFAtck5r-56" target="UDIB14FkJ_S7tFAtck5r-60" edge="1">
          <mxGeometry width="50" height="50" relative="1" as="geometry">
            <mxPoint x="952" y="2152" as="sourcePoint" />
            <mxPoint x="832" y="2152" as="targetPoint" />
          </mxGeometry>
        </mxCell>
        <mxCell id="UDIB14FkJ_S7tFAtck5r-66" value="&lt;code data-start=&quot;747&quot; data-end=&quot;757&quot;&gt;Extension&lt;/code&gt;" style="ellipse;whiteSpace=wrap;html=1;fontSize=16;" parent="1" vertex="1">
          <mxGeometry x="1082" y="2008" width="120" height="80" as="geometry" />
        </mxCell>
        <mxCell id="UDIB14FkJ_S7tFAtck5r-70" value="" style="endArrow=none;html=1;rounded=0;exitX=1;exitY=0.5;exitDx=0;exitDy=0;entryX=0;entryY=0.5;entryDx=0;entryDy=0;fontSize=16;" parent="1" source="UDIB14FkJ_S7tFAtck5r-56" target="UDIB14FkJ_S7tFAtck5r-66" edge="1">
          <mxGeometry width="50" height="50" relative="1" as="geometry">
            <mxPoint x="992" y="2322" as="sourcePoint" />
            <mxPoint x="1112" y="2298" as="targetPoint" />
          </mxGeometry>
        </mxCell>
        <mxCell id="UDIB14FkJ_S7tFAtck5r-72" value="Lesson" style="rounded=0;whiteSpace=wrap;html=1;fontSize=16;" parent="1" vertex="1">
          <mxGeometry x="-272.5" y="1634" width="120" height="60" as="geometry" />
        </mxCell>
        <mxCell id="UDIB14FkJ_S7tFAtck5r-73" value="Title" style="ellipse;whiteSpace=wrap;html=1;fontSize=16;" parent="1" vertex="1">
          <mxGeometry x="-412.5" y="1500" width="120" height="80" as="geometry" />
        </mxCell>
        <mxCell id="UDIB14FkJ_S7tFAtck5r-74" value="ID" style="ellipse;whiteSpace=wrap;html=1;fontSize=16;" parent="1" vertex="1">
          <mxGeometry x="-272.5" y="1490" width="120" height="80" as="geometry" />
        </mxCell>
        <mxCell id="UDIB14FkJ_S7tFAtck5r-75" value="Description" style="ellipse;whiteSpace=wrap;html=1;fontSize=16;" parent="1" vertex="1">
          <mxGeometry x="-502.5" y="1580" width="120" height="80" as="geometry" />
        </mxCell>
        <mxCell id="UDIB14FkJ_S7tFAtck5r-76" value="OTP" style="ellipse;whiteSpace=wrap;html=1;fontSize=16;" parent="1" vertex="1">
          <mxGeometry x="-132.5" y="1500" width="120" height="80" as="geometry" />
        </mxCell>
        <mxCell id="UDIB14FkJ_S7tFAtck5r-77" value="" style="endArrow=none;html=1;rounded=0;exitX=0.5;exitY=0;exitDx=0;exitDy=0;fontSize=16;" parent="1" source="UDIB14FkJ_S7tFAtck5r-72" target="UDIB14FkJ_S7tFAtck5r-74" edge="1">
          <mxGeometry width="50" height="50" relative="1" as="geometry">
            <mxPoint x="-322.5" y="1634" as="sourcePoint" />
            <mxPoint x="-292.5" y="1540" as="targetPoint" />
          </mxGeometry>
        </mxCell>
        <mxCell id="UDIB14FkJ_S7tFAtck5r-78" value="" style="endArrow=none;html=1;rounded=0;exitX=0.5;exitY=0;exitDx=0;exitDy=0;fontSize=16;" parent="1" source="UDIB14FkJ_S7tFAtck5r-72" target="UDIB14FkJ_S7tFAtck5r-73" edge="1">
          <mxGeometry width="50" height="50" relative="1" as="geometry">
            <mxPoint x="-312.5" y="1664" as="sourcePoint" />
            <mxPoint x="-402.5" y="1560" as="targetPoint" />
          </mxGeometry>
        </mxCell>
        <mxCell id="UDIB14FkJ_S7tFAtck5r-79" value="" style="endArrow=none;html=1;rounded=0;entryX=1.003;entryY=0.62;entryDx=0;entryDy=0;exitX=0;exitY=0.5;exitDx=0;exitDy=0;entryPerimeter=0;fontSize=16;" parent="1" source="UDIB14FkJ_S7tFAtck5r-72" target="UDIB14FkJ_S7tFAtck5r-75" edge="1">
          <mxGeometry width="50" height="50" relative="1" as="geometry">
            <mxPoint x="-192.5" y="1727.28" as="sourcePoint" />
            <mxPoint x="-372.5" y="1654.28" as="targetPoint" />
          </mxGeometry>
        </mxCell>
        <mxCell id="UDIB14FkJ_S7tFAtck5r-80" value="" style="endArrow=none;html=1;rounded=0;exitX=0.5;exitY=0;exitDx=0;exitDy=0;entryX=0.065;entryY=0.801;entryDx=0;entryDy=0;entryPerimeter=0;fontSize=16;" parent="1" source="UDIB14FkJ_S7tFAtck5r-72" target="UDIB14FkJ_S7tFAtck5r-76" edge="1">
          <mxGeometry width="50" height="50" relative="1" as="geometry">
            <mxPoint x="-182.5" y="1724" as="sourcePoint" />
            <mxPoint x="-302.5" y="1724" as="targetPoint" />
          </mxGeometry>
        </mxCell>
        <mxCell id="UDIB14FkJ_S7tFAtck5r-81" value="&lt;code data-start=&quot;747&quot; data-end=&quot;757&quot;&gt;Status&lt;/code&gt;" style="ellipse;whiteSpace=wrap;html=1;fontSize=16;" parent="1" vertex="1">
          <mxGeometry x="-52.5" y="1580" width="120" height="80" as="geometry" />
        </mxCell>
        <mxCell id="UDIB14FkJ_S7tFAtck5r-82" value="" style="endArrow=none;html=1;rounded=0;exitX=1;exitY=0.5;exitDx=0;exitDy=0;entryX=0;entryY=0.5;entryDx=0;entryDy=0;fontSize=16;" parent="1" source="UDIB14FkJ_S7tFAtck5r-72" target="UDIB14FkJ_S7tFAtck5r-81" edge="1">
          <mxGeometry width="50" height="50" relative="1" as="geometry">
            <mxPoint x="-142.5" y="1894" as="sourcePoint" />
            <mxPoint x="-22.5" y="1870" as="targetPoint" />
          </mxGeometry>
        </mxCell>
        <mxCell id="UDIB14FkJ_S7tFAtck5r-83" value="&lt;code data-start=&quot;747&quot; data-end=&quot;757&quot;&gt;StartDate&lt;/code&gt;" style="ellipse;whiteSpace=wrap;html=1;fontSize=16;" parent="1" vertex="1">
          <mxGeometry x="-47.5" y="1680" width="120" height="80" as="geometry" />
        </mxCell>
        <mxCell id="UDIB14FkJ_S7tFAtck5r-84" value="&lt;code data-start=&quot;747&quot; data-end=&quot;757&quot;&gt;EndDate&lt;/code&gt;" style="ellipse;whiteSpace=wrap;html=1;fontSize=16;" parent="1" vertex="1">
          <mxGeometry x="-502.5" y="1680" width="120" height="80" as="geometry" />
        </mxCell>
        <mxCell id="UDIB14FkJ_S7tFAtck5r-85" value="" style="endArrow=none;html=1;rounded=0;entryX=1;entryY=0.5;entryDx=0;entryDy=0;exitX=0;exitY=0.5;exitDx=0;exitDy=0;fontSize=16;" parent="1" source="UDIB14FkJ_S7tFAtck5r-72" target="UDIB14FkJ_S7tFAtck5r-84" edge="1">
          <mxGeometry width="50" height="50" relative="1" as="geometry">
            <mxPoint x="-262.68" y="1794.4" as="sourcePoint" />
            <mxPoint x="-372.68" y="1760.4" as="targetPoint" />
          </mxGeometry>
        </mxCell>
        <mxCell id="UDIB14FkJ_S7tFAtck5r-86" value="" style="endArrow=none;html=1;rounded=0;entryX=0;entryY=0.5;entryDx=0;entryDy=0;exitX=1;exitY=0.5;exitDx=0;exitDy=0;fontSize=16;" parent="1" source="UDIB14FkJ_S7tFAtck5r-72" target="UDIB14FkJ_S7tFAtck5r-83" edge="1">
          <mxGeometry width="50" height="50" relative="1" as="geometry">
            <mxPoint x="-77.5" y="1710" as="sourcePoint" />
            <mxPoint x="-187.5" y="1766" as="targetPoint" />
          </mxGeometry>
        </mxCell>
        <mxCell id="PO8PJyuL3kDX_Ksygov9-46" style="edgeStyle=orthogonalEdgeStyle;rounded=0;orthogonalLoop=1;jettySize=auto;html=1;exitX=0.5;exitY=1;exitDx=0;exitDy=0;entryX=0;entryY=0.5;entryDx=0;entryDy=0;" parent="1" target="PO8PJyuL3kDX_Ksygov9-44" edge="1">
          <mxGeometry relative="1" as="geometry">
            <mxPoint x="1149" y="1702.9999999999995" as="sourcePoint" />
            <mxPoint x="1579" y="1989" as="targetPoint" />
            <Array as="points">
              <mxPoint x="1179" y="1703" />
              <mxPoint x="1179" y="1837" />
            </Array>
          </mxGeometry>
        </mxCell>
        <mxCell id="UDIB14FkJ_S7tFAtck5r-87" value="Quiz" style="rounded=0;whiteSpace=wrap;html=1;fontSize=16;" parent="1" vertex="1">
          <mxGeometry x="1092" y="1643" width="120" height="60" as="geometry" />
        </mxCell>
        <mxCell id="UDIB14FkJ_S7tFAtck5r-88" value="Title" style="ellipse;whiteSpace=wrap;html=1;fontSize=16;" parent="1" vertex="1">
          <mxGeometry x="890" y="1540" width="120" height="80" as="geometry" />
        </mxCell>
        <mxCell id="UDIB14FkJ_S7tFAtck5r-89" value="ID" style="ellipse;whiteSpace=wrap;html=1;fontSize=16;" parent="1" vertex="1">
          <mxGeometry x="1275" y="1440" width="120" height="80" as="geometry" />
        </mxCell>
        <mxCell id="UDIB14FkJ_S7tFAtck5r-90" value="Description" style="ellipse;whiteSpace=wrap;html=1;fontSize=16;" parent="1" vertex="1">
          <mxGeometry x="850" y="1623" width="120" height="80" as="geometry" />
        </mxCell>
        <mxCell id="UDIB14FkJ_S7tFAtck5r-91" value="Grade" style="ellipse;whiteSpace=wrap;html=1;fontSize=16;" parent="1" vertex="1">
          <mxGeometry x="1320" y="1540" width="120" height="80" as="geometry" />
        </mxCell>
        <mxCell id="UDIB14FkJ_S7tFAtck5r-92" value="" style="endArrow=none;html=1;rounded=0;exitX=0.5;exitY=0;exitDx=0;exitDy=0;fontSize=16;" parent="1" source="UDIB14FkJ_S7tFAtck5r-87" target="UDIB14FkJ_S7tFAtck5r-89" edge="1">
          <mxGeometry width="50" height="50" relative="1" as="geometry">
            <mxPoint x="1042" y="1643" as="sourcePoint" />
            <mxPoint x="1072" y="1549" as="targetPoint" />
          </mxGeometry>
        </mxCell>
        <mxCell id="UDIB14FkJ_S7tFAtck5r-93" value="" style="endArrow=none;html=1;rounded=0;exitX=0.5;exitY=0;exitDx=0;exitDy=0;fontSize=16;" parent="1" source="UDIB14FkJ_S7tFAtck5r-87" target="UDIB14FkJ_S7tFAtck5r-88" edge="1">
          <mxGeometry width="50" height="50" relative="1" as="geometry">
            <mxPoint x="1052" y="1673" as="sourcePoint" />
            <mxPoint x="962" y="1569" as="targetPoint" />
          </mxGeometry>
        </mxCell>
        <mxCell id="UDIB14FkJ_S7tFAtck5r-94" value="" style="endArrow=none;html=1;rounded=0;entryX=1.003;entryY=0.62;entryDx=0;entryDy=0;exitX=0;exitY=0.5;exitDx=0;exitDy=0;entryPerimeter=0;fontSize=16;" parent="1" source="UDIB14FkJ_S7tFAtck5r-87" target="UDIB14FkJ_S7tFAtck5r-90" edge="1">
          <mxGeometry width="50" height="50" relative="1" as="geometry">
            <mxPoint x="1172" y="1736.2799999999997" as="sourcePoint" />
            <mxPoint x="992" y="1663.2799999999997" as="targetPoint" />
          </mxGeometry>
        </mxCell>
        <mxCell id="UDIB14FkJ_S7tFAtck5r-95" value="" style="endArrow=none;html=1;rounded=0;exitX=0.5;exitY=0;exitDx=0;exitDy=0;entryX=0.065;entryY=0.801;entryDx=0;entryDy=0;entryPerimeter=0;fontSize=16;" parent="1" source="UDIB14FkJ_S7tFAtck5r-87" target="UDIB14FkJ_S7tFAtck5r-91" edge="1">
          <mxGeometry width="50" height="50" relative="1" as="geometry">
            <mxPoint x="1182" y="1733" as="sourcePoint" />
            <mxPoint x="1062" y="1733" as="targetPoint" />
          </mxGeometry>
        </mxCell>
        <mxCell id="UDIB14FkJ_S7tFAtck5r-96" value="&lt;code data-start=&quot;747&quot; data-end=&quot;757&quot;&gt;Status&lt;/code&gt;" style="ellipse;whiteSpace=wrap;html=1;fontSize=16;" parent="1" vertex="1">
          <mxGeometry x="1340" y="1630" width="120" height="80" as="geometry" />
        </mxCell>
        <mxCell id="UDIB14FkJ_S7tFAtck5r-97" value="" style="endArrow=none;html=1;rounded=0;exitX=1;exitY=0.5;exitDx=0;exitDy=0;entryX=0;entryY=0.5;entryDx=0;entryDy=0;fontSize=16;" parent="1" source="UDIB14FkJ_S7tFAtck5r-87" target="UDIB14FkJ_S7tFAtck5r-96" edge="1">
          <mxGeometry width="50" height="50" relative="1" as="geometry">
            <mxPoint x="1222" y="1903" as="sourcePoint" />
            <mxPoint x="1342" y="1879" as="targetPoint" />
          </mxGeometry>
        </mxCell>
        <mxCell id="UDIB14FkJ_S7tFAtck5r-98" value="&lt;code data-start=&quot;747&quot; data-end=&quot;757&quot;&gt;StartDate&lt;/code&gt;" style="ellipse;whiteSpace=wrap;html=1;fontSize=16;" parent="1" vertex="1">
          <mxGeometry x="1290" y="1719" width="120" height="80" as="geometry" />
        </mxCell>
        <mxCell id="UDIB14FkJ_S7tFAtck5r-99" value="&lt;code data-start=&quot;747&quot; data-end=&quot;757&quot;&gt;EndDate&lt;/code&gt;" style="ellipse;whiteSpace=wrap;html=1;fontSize=16;" parent="1" vertex="1">
          <mxGeometry x="900" y="1710" width="120" height="80" as="geometry" />
        </mxCell>
        <mxCell id="UDIB14FkJ_S7tFAtck5r-100" value="" style="endArrow=none;html=1;rounded=0;entryX=1;entryY=0.5;entryDx=0;entryDy=0;exitX=0;exitY=0.5;exitDx=0;exitDy=0;fontSize=16;" parent="1" source="UDIB14FkJ_S7tFAtck5r-87" target="UDIB14FkJ_S7tFAtck5r-99" edge="1">
          <mxGeometry width="50" height="50" relative="1" as="geometry">
            <mxPoint x="1101.82" y="1803.4" as="sourcePoint" />
            <mxPoint x="991.8199999999999" y="1769.4" as="targetPoint" />
          </mxGeometry>
        </mxCell>
        <mxCell id="UDIB14FkJ_S7tFAtck5r-101" value="" style="endArrow=none;html=1;rounded=0;entryX=0;entryY=0.5;entryDx=0;entryDy=0;exitX=1;exitY=0.5;exitDx=0;exitDy=0;fontSize=16;" parent="1" source="UDIB14FkJ_S7tFAtck5r-87" target="UDIB14FkJ_S7tFAtck5r-98" edge="1">
          <mxGeometry width="50" height="50" relative="1" as="geometry">
            <mxPoint x="1287" y="1719" as="sourcePoint" />
            <mxPoint x="1177" y="1775" as="targetPoint" />
          </mxGeometry>
        </mxCell>
        <mxCell id="UDIB14FkJ_S7tFAtck5r-102" value="Question" style="rounded=0;whiteSpace=wrap;html=1;fontSize=16;" parent="1" vertex="1">
          <mxGeometry x="2050.5" y="1623" width="120" height="60" as="geometry" />
        </mxCell>
        <mxCell id="UDIB14FkJ_S7tFAtck5r-103" value="Title" style="ellipse;whiteSpace=wrap;html=1;fontSize=16;" parent="1" vertex="1">
          <mxGeometry x="1910.5" y="1489" width="120" height="80" as="geometry" />
        </mxCell>
        <mxCell id="UDIB14FkJ_S7tFAtck5r-104" value="ID" style="ellipse;whiteSpace=wrap;html=1;fontSize=16;" parent="1" vertex="1">
          <mxGeometry x="2050.5" y="1479" width="120" height="80" as="geometry" />
        </mxCell>
        <mxCell id="UDIB14FkJ_S7tFAtck5r-105" value="CorrectAnswer" style="ellipse;whiteSpace=wrap;html=1;fontSize=16;" parent="1" vertex="1">
          <mxGeometry x="1828" y="1579" width="120" height="80" as="geometry" />
        </mxCell>
        <mxCell id="UDIB14FkJ_S7tFAtck5r-106" value="Grade" style="ellipse;whiteSpace=wrap;html=1;fontSize=16;" parent="1" vertex="1">
          <mxGeometry x="2190.5" y="1489" width="120" height="80" as="geometry" />
        </mxCell>
        <mxCell id="UDIB14FkJ_S7tFAtck5r-107" value="" style="endArrow=none;html=1;rounded=0;exitX=0.5;exitY=0;exitDx=0;exitDy=0;fontSize=16;" parent="1" source="UDIB14FkJ_S7tFAtck5r-102" target="UDIB14FkJ_S7tFAtck5r-104" edge="1">
          <mxGeometry width="50" height="50" relative="1" as="geometry">
            <mxPoint x="2000.5" y="1623" as="sourcePoint" />
            <mxPoint x="2030.5" y="1529" as="targetPoint" />
          </mxGeometry>
        </mxCell>
        <mxCell id="UDIB14FkJ_S7tFAtck5r-108" value="" style="endArrow=none;html=1;rounded=0;exitX=0.5;exitY=0;exitDx=0;exitDy=0;fontSize=16;" parent="1" source="UDIB14FkJ_S7tFAtck5r-102" target="UDIB14FkJ_S7tFAtck5r-103" edge="1">
          <mxGeometry width="50" height="50" relative="1" as="geometry">
            <mxPoint x="2010.5" y="1653" as="sourcePoint" />
            <mxPoint x="1920.5" y="1549" as="targetPoint" />
          </mxGeometry>
        </mxCell>
        <mxCell id="UDIB14FkJ_S7tFAtck5r-109" value="" style="endArrow=none;html=1;rounded=0;entryX=1.003;entryY=0.62;entryDx=0;entryDy=0;exitX=0;exitY=0.5;exitDx=0;exitDy=0;entryPerimeter=0;fontSize=16;" parent="1" source="UDIB14FkJ_S7tFAtck5r-102" target="UDIB14FkJ_S7tFAtck5r-105" edge="1">
          <mxGeometry width="50" height="50" relative="1" as="geometry">
            <mxPoint x="2130.5" y="1716.2799999999997" as="sourcePoint" />
            <mxPoint x="1950.5" y="1643.2799999999997" as="targetPoint" />
          </mxGeometry>
        </mxCell>
        <mxCell id="UDIB14FkJ_S7tFAtck5r-110" value="" style="endArrow=none;html=1;rounded=0;exitX=0.5;exitY=0;exitDx=0;exitDy=0;entryX=0.065;entryY=0.801;entryDx=0;entryDy=0;entryPerimeter=0;fontSize=16;" parent="1" source="UDIB14FkJ_S7tFAtck5r-102" target="UDIB14FkJ_S7tFAtck5r-106" edge="1">
          <mxGeometry width="50" height="50" relative="1" as="geometry">
            <mxPoint x="2140.5" y="1713" as="sourcePoint" />
            <mxPoint x="2020.5" y="1713" as="targetPoint" />
          </mxGeometry>
        </mxCell>
        <mxCell id="UDIB14FkJ_S7tFAtck5r-112" value="" style="endArrow=none;html=1;rounded=0;exitX=1;exitY=0.5;exitDx=0;exitDy=0;entryX=0;entryY=0.5;entryDx=0;entryDy=0;fontSize=16;" parent="1" source="UDIB14FkJ_S7tFAtck5r-102" target="UDIB14FkJ_S7tFAtck5r-117" edge="1">
          <mxGeometry width="50" height="50" relative="1" as="geometry">
            <mxPoint x="2180.5" y="1883" as="sourcePoint" />
            <mxPoint x="2270.5" y="1609" as="targetPoint" />
          </mxGeometry>
        </mxCell>
        <mxCell id="UDIB14FkJ_S7tFAtck5r-117" value="Answers" style="ellipse;shape=doubleEllipse;margin=3;whiteSpace=wrap;html=1;align=center;fontSize=16;" parent="1" vertex="1">
          <mxGeometry x="2273" y="1579" width="130" height="90" as="geometry" />
        </mxCell>
        <mxCell id="UDIB14FkJ_S7tFAtck5r-122" value="Type" style="ellipse;whiteSpace=wrap;html=1;fontSize=16;" parent="1" vertex="1">
          <mxGeometry x="1848" y="1669" width="120" height="80" as="geometry" />
        </mxCell>
        <mxCell id="UDIB14FkJ_S7tFAtck5r-123" value="" style="endArrow=none;html=1;rounded=0;entryX=0;entryY=0.5;entryDx=0;entryDy=0;exitX=1;exitY=0.5;exitDx=0;exitDy=0;fontSize=16;" parent="1" source="UDIB14FkJ_S7tFAtck5r-122" target="UDIB14FkJ_S7tFAtck5r-102" edge="1">
          <mxGeometry width="50" height="50" relative="1" as="geometry">
            <mxPoint x="2028.1399999999999" y="1763.4" as="sourcePoint" />
            <mxPoint x="1918.1399999999999" y="1729.4" as="targetPoint" />
          </mxGeometry>
        </mxCell>
        <mxCell id="UDIB14FkJ_S7tFAtck5r-124" value="Assignment" style="rounded=0;whiteSpace=wrap;html=1;fontSize=16;" parent="1" vertex="1">
          <mxGeometry x="-280" y="2043" width="120" height="60" as="geometry" />
        </mxCell>
        <mxCell id="UDIB14FkJ_S7tFAtck5r-125" value="Title" style="ellipse;whiteSpace=wrap;html=1;fontSize=16;" parent="1" vertex="1">
          <mxGeometry x="-420" y="1909" width="120" height="80" as="geometry" />
        </mxCell>
        <mxCell id="UDIB14FkJ_S7tFAtck5r-126" value="ID" style="ellipse;whiteSpace=wrap;html=1;fontSize=16;" parent="1" vertex="1">
          <mxGeometry x="-280" y="1899" width="120" height="80" as="geometry" />
        </mxCell>
        <mxCell id="UDIB14FkJ_S7tFAtck5r-127" value="Description" style="ellipse;whiteSpace=wrap;html=1;fontSize=16;" parent="1" vertex="1">
          <mxGeometry x="-510" y="1989" width="120" height="80" as="geometry" />
        </mxCell>
        <mxCell id="UDIB14FkJ_S7tFAtck5r-128" value="Grade" style="ellipse;whiteSpace=wrap;html=1;fontSize=16;" parent="1" vertex="1">
          <mxGeometry x="-140" y="1909" width="120" height="80" as="geometry" />
        </mxCell>
        <mxCell id="UDIB14FkJ_S7tFAtck5r-129" value="" style="endArrow=none;html=1;rounded=0;exitX=0.5;exitY=0;exitDx=0;exitDy=0;fontSize=16;" parent="1" source="UDIB14FkJ_S7tFAtck5r-124" target="UDIB14FkJ_S7tFAtck5r-126" edge="1">
          <mxGeometry width="50" height="50" relative="1" as="geometry">
            <mxPoint x="-330" y="2043" as="sourcePoint" />
            <mxPoint x="-300" y="1949" as="targetPoint" />
          </mxGeometry>
        </mxCell>
        <mxCell id="UDIB14FkJ_S7tFAtck5r-130" value="" style="endArrow=none;html=1;rounded=0;exitX=0.5;exitY=0;exitDx=0;exitDy=0;fontSize=16;" parent="1" source="UDIB14FkJ_S7tFAtck5r-124" target="UDIB14FkJ_S7tFAtck5r-125" edge="1">
          <mxGeometry width="50" height="50" relative="1" as="geometry">
            <mxPoint x="-320" y="2073" as="sourcePoint" />
            <mxPoint x="-410" y="1969" as="targetPoint" />
          </mxGeometry>
        </mxCell>
        <mxCell id="UDIB14FkJ_S7tFAtck5r-131" value="" style="endArrow=none;html=1;rounded=0;entryX=1.003;entryY=0.62;entryDx=0;entryDy=0;exitX=0;exitY=0.5;exitDx=0;exitDy=0;entryPerimeter=0;fontSize=16;" parent="1" source="UDIB14FkJ_S7tFAtck5r-124" target="UDIB14FkJ_S7tFAtck5r-127" edge="1">
          <mxGeometry width="50" height="50" relative="1" as="geometry">
            <mxPoint x="-200" y="2136.2799999999997" as="sourcePoint" />
            <mxPoint x="-380" y="2063.2799999999997" as="targetPoint" />
          </mxGeometry>
        </mxCell>
        <mxCell id="UDIB14FkJ_S7tFAtck5r-132" value="" style="endArrow=none;html=1;rounded=0;exitX=0.5;exitY=0;exitDx=0;exitDy=0;entryX=0.065;entryY=0.801;entryDx=0;entryDy=0;entryPerimeter=0;fontSize=16;" parent="1" source="UDIB14FkJ_S7tFAtck5r-124" target="UDIB14FkJ_S7tFAtck5r-128" edge="1">
          <mxGeometry width="50" height="50" relative="1" as="geometry">
            <mxPoint x="-190" y="2133" as="sourcePoint" />
            <mxPoint x="-310" y="2133" as="targetPoint" />
          </mxGeometry>
        </mxCell>
        <mxCell id="UDIB14FkJ_S7tFAtck5r-133" value="&lt;code data-start=&quot;747&quot; data-end=&quot;757&quot;&gt;Status&lt;/code&gt;" style="ellipse;whiteSpace=wrap;html=1;fontSize=16;" parent="1" vertex="1">
          <mxGeometry x="-60" y="1989" width="120" height="80" as="geometry" />
        </mxCell>
        <mxCell id="UDIB14FkJ_S7tFAtck5r-134" value="" style="endArrow=none;html=1;rounded=0;exitX=1;exitY=0.5;exitDx=0;exitDy=0;entryX=0;entryY=0.5;entryDx=0;entryDy=0;fontSize=16;" parent="1" source="UDIB14FkJ_S7tFAtck5r-124" target="UDIB14FkJ_S7tFAtck5r-133" edge="1">
          <mxGeometry width="50" height="50" relative="1" as="geometry">
            <mxPoint x="-150" y="2303" as="sourcePoint" />
            <mxPoint x="-30" y="2279" as="targetPoint" />
          </mxGeometry>
        </mxCell>
        <mxCell id="UDIB14FkJ_S7tFAtck5r-135" value="&lt;code data-start=&quot;747&quot; data-end=&quot;757&quot;&gt;StartDate&lt;/code&gt;" style="ellipse;whiteSpace=wrap;html=1;fontSize=16;" parent="1" vertex="1">
          <mxGeometry x="-55" y="2089" width="120" height="80" as="geometry" />
        </mxCell>
        <mxCell id="UDIB14FkJ_S7tFAtck5r-136" value="&lt;code data-start=&quot;747&quot; data-end=&quot;757&quot;&gt;EndDate&lt;/code&gt;" style="ellipse;whiteSpace=wrap;html=1;fontSize=16;" parent="1" vertex="1">
          <mxGeometry x="-510" y="2089" width="120" height="80" as="geometry" />
        </mxCell>
        <mxCell id="UDIB14FkJ_S7tFAtck5r-137" value="" style="endArrow=none;html=1;rounded=0;entryX=1;entryY=0.5;entryDx=0;entryDy=0;exitX=0;exitY=0.5;exitDx=0;exitDy=0;fontSize=16;" parent="1" source="UDIB14FkJ_S7tFAtck5r-124" target="UDIB14FkJ_S7tFAtck5r-136" edge="1">
          <mxGeometry width="50" height="50" relative="1" as="geometry">
            <mxPoint x="-270.18" y="2203.4" as="sourcePoint" />
            <mxPoint x="-380.18" y="2169.4" as="targetPoint" />
          </mxGeometry>
        </mxCell>
        <mxCell id="UDIB14FkJ_S7tFAtck5r-138" value="" style="endArrow=none;html=1;rounded=0;entryX=0;entryY=0.5;entryDx=0;entryDy=0;exitX=1;exitY=0.5;exitDx=0;exitDy=0;fontSize=16;" parent="1" source="UDIB14FkJ_S7tFAtck5r-124" target="UDIB14FkJ_S7tFAtck5r-135" edge="1">
          <mxGeometry width="50" height="50" relative="1" as="geometry">
            <mxPoint x="-85" y="2119" as="sourcePoint" />
            <mxPoint x="-195" y="2175" as="targetPoint" />
          </mxGeometry>
        </mxCell>
        <mxCell id="PO8PJyuL3kDX_Ksygov9-1" value="" style="shape=rhombus;perimeter=rhombusPerimeter;whiteSpace=wrap;html=1;align=center;rotation=90;direction=west;fontSize=16;" parent="1" vertex="1">
          <mxGeometry x="322" y="735" width="140" height="90" as="geometry" />
        </mxCell>
        <mxCell id="PO8PJyuL3kDX_Ksygov9-2" value="" style="endArrow=none;html=1;rounded=0;entryX=0.25;entryY=1;entryDx=0;entryDy=0;fontSize=16;" parent="1" source="UDIB14FkJ_S7tFAtck5r-8" target="UDIB14FkJ_S7tFAtck5r-1" edge="1">
          <mxGeometry relative="1" as="geometry">
            <mxPoint x="360" y="750" as="sourcePoint" />
            <mxPoint x="520" y="750" as="targetPoint" />
          </mxGeometry>
        </mxCell>
        <mxCell id="PO8PJyuL3kDX_Ksygov9-3" value="" style="endArrow=none;html=1;rounded=0;exitX=1;exitY=0.5;exitDx=0;exitDy=0;entryX=0.5;entryY=1;entryDx=0;entryDy=0;fontSize=16;" parent="1" source="PO8PJyuL3kDX_Ksygov9-1" target="UDIB14FkJ_S7tFAtck5r-1" edge="1">
          <mxGeometry relative="1" as="geometry">
            <mxPoint x="210" y="690" as="sourcePoint" />
            <mxPoint x="350" y="350" as="targetPoint" />
          </mxGeometry>
        </mxCell>
        <mxCell id="UDIB14FkJ_S7tFAtck5r-8" value="BirthDate" style="ellipse;whiteSpace=wrap;html=1;fontSize=16;" parent="1" vertex="1">
          <mxGeometry x="50" y="410" width="120" height="80" as="geometry" />
        </mxCell>
        <mxCell id="PO8PJyuL3kDX_Ksygov9-5" value="Teaching" style="shape=rhombus;perimeter=rhombusPerimeter;whiteSpace=wrap;html=1;align=center;rotation=90;direction=west;fontSize=16;" parent="1" vertex="1">
          <mxGeometry x="650" y="705" width="140" height="90" as="geometry" />
        </mxCell>
        <mxCell id="PO8PJyuL3kDX_Ksygov9-6" value="" style="endArrow=blockThin;html=1;rounded=0;exitX=0.5;exitY=1;exitDx=0;exitDy=0;entryX=1;entryY=0.5;entryDx=0;entryDy=0;fontSize=16;endFill=1;" parent="1" source="UDIB14FkJ_S7tFAtck5r-1" target="PO8PJyuL3kDX_Ksygov9-5" edge="1">
          <mxGeometry relative="1" as="geometry">
            <mxPoint x="420" y="940" as="sourcePoint" />
            <mxPoint x="580" y="940" as="targetPoint" />
          </mxGeometry>
        </mxCell>
        <mxCell id="PO8PJyuL3kDX_Ksygov9-14" value="" style="endArrow=none;html=1;rounded=0;entryX=0;entryY=0.5;entryDx=0;entryDy=0;exitX=0.5;exitY=0;exitDx=0;exitDy=0;fontSize=16;" parent="1" source="UDIB14FkJ_S7tFAtck5r-25" target="PO8PJyuL3kDX_Ksygov9-1" edge="1">
          <mxGeometry relative="1" as="geometry">
            <mxPoint x="360" y="990" as="sourcePoint" />
            <mxPoint x="162.5" y="600" as="targetPoint" />
          </mxGeometry>
        </mxCell>
        <mxCell id="PO8PJyuL3kDX_Ksygov9-15" value="" style="endArrow=none;html=1;rounded=0;entryX=0;entryY=0.5;entryDx=0;entryDy=0;exitX=0.5;exitY=0;exitDx=0;exitDy=0;fontSize=16;" parent="1" source="UDIB14FkJ_S7tFAtck5r-25" target="PO8PJyuL3kDX_Ksygov9-5" edge="1">
          <mxGeometry relative="1" as="geometry">
            <mxPoint x="752" y="1135" as="sourcePoint" />
            <mxPoint x="750" y="800" as="targetPoint" />
            <Array as="points">
              <mxPoint x="410" y="1080" />
              <mxPoint x="430" y="900" />
            </Array>
          </mxGeometry>
        </mxCell>
        <mxCell id="PO8PJyuL3kDX_Ksygov9-16" value="Enrollment" style="text;html=1;align=center;verticalAlign=middle;resizable=0;points=[];autosize=1;strokeColor=none;fillColor=none;fontSize=16;rotation=90;" parent="1" vertex="1">
          <mxGeometry x="342.5" y="765" width="100" height="30" as="geometry" />
        </mxCell>
        <mxCell id="PO8PJyuL3kDX_Ksygov9-17" value="1" style="text;html=1;align=center;verticalAlign=middle;resizable=0;points=[];autosize=1;strokeColor=none;fillColor=none;fontSize=20;" parent="1" vertex="1">
          <mxGeometry x="735" y="645" width="30" height="40" as="geometry" />
        </mxCell>
        <mxCell id="PO8PJyuL3kDX_Ksygov9-18" value="*" style="text;html=1;align=center;verticalAlign=middle;resizable=0;points=[];autosize=1;strokeColor=none;fillColor=none;fontSize=20;" parent="1" vertex="1">
          <mxGeometry x="667" y="793" width="30" height="40" as="geometry" />
        </mxCell>
        <mxCell id="PO8PJyuL3kDX_Ksygov9-20" value="*" style="text;html=1;align=center;verticalAlign=middle;resizable=0;points=[];autosize=1;strokeColor=none;fillColor=none;fontSize=20;" parent="1" vertex="1">
          <mxGeometry x="342" y="843" width="30" height="40" as="geometry" />
        </mxCell>
        <mxCell id="PO8PJyuL3kDX_Ksygov9-21" value="*" style="text;html=1;align=center;verticalAlign=middle;resizable=0;points=[];autosize=1;strokeColor=none;fillColor=none;fontSize=20;" parent="1" vertex="1">
          <mxGeometry x="355" y="663" width="30" height="40" as="geometry" />
        </mxCell>
        <mxCell id="PO8PJyuL3kDX_Ksygov9-31" style="edgeStyle=orthogonalEdgeStyle;rounded=0;orthogonalLoop=1;jettySize=auto;html=1;exitX=0.5;exitY=1;exitDx=0;exitDy=0;entryX=0.5;entryY=1;entryDx=0;entryDy=0;" parent="1" source="PO8PJyuL3kDX_Ksygov9-22" target="UDIB14FkJ_S7tFAtck5r-56" edge="1">
          <mxGeometry relative="1" as="geometry">
            <Array as="points">
              <mxPoint x="480" y="2178" />
              <mxPoint x="480" y="2240" />
              <mxPoint x="922" y="2240" />
            </Array>
          </mxGeometry>
        </mxCell>
        <mxCell id="PO8PJyuL3kDX_Ksygov9-34" style="edgeStyle=orthogonalEdgeStyle;rounded=0;orthogonalLoop=1;jettySize=auto;html=1;exitX=0.5;exitY=0;exitDx=0;exitDy=0;entryX=0.5;entryY=1;entryDx=0;entryDy=0;" parent="1" source="PO8PJyuL3kDX_Ksygov9-22" target="UDIB14FkJ_S7tFAtck5r-124" edge="1">
          <mxGeometry relative="1" as="geometry">
            <Array as="points">
              <mxPoint x="310" y="2178" />
              <mxPoint x="310" y="2280" />
              <mxPoint x="-220" y="2280" />
            </Array>
          </mxGeometry>
        </mxCell>
        <mxCell id="PO8PJyuL3kDX_Ksygov9-36" style="edgeStyle=orthogonalEdgeStyle;rounded=0;orthogonalLoop=1;jettySize=auto;html=1;exitX=0.5;exitY=1;exitDx=0;exitDy=0;entryX=0.5;entryY=1;entryDx=0;entryDy=0;" parent="1" source="PO8PJyuL3kDX_Ksygov9-22" target="UDIB14FkJ_S7tFAtck5r-87" edge="1">
          <mxGeometry relative="1" as="geometry">
            <Array as="points">
              <mxPoint x="480" y="2178" />
              <mxPoint x="480" y="1840" />
              <mxPoint x="1150" y="1840" />
              <mxPoint x="1150" y="1703" />
            </Array>
          </mxGeometry>
        </mxCell>
        <mxCell id="PO8PJyuL3kDX_Ksygov9-67" style="edgeStyle=orthogonalEdgeStyle;rounded=0;orthogonalLoop=1;jettySize=auto;html=1;exitX=0;exitY=0.5;exitDx=0;exitDy=0;entryX=0.75;entryY=1;entryDx=0;entryDy=0;" parent="1" source="PO8PJyuL3kDX_Ksygov9-22" target="UDIB14FkJ_S7tFAtck5r-102" edge="1">
          <mxGeometry relative="1" as="geometry">
            <mxPoint x="2204.0402560763896" y="1810.0000000000005" as="targetPoint" />
            <Array as="points">
              <mxPoint x="393" y="2370" />
              <mxPoint x="2141" y="2370" />
            </Array>
          </mxGeometry>
        </mxCell>
        <mxCell id="PO8PJyuL3kDX_Ksygov9-22" value="" style="shape=rhombus;perimeter=rhombusPerimeter;whiteSpace=wrap;html=1;align=center;rotation=90;direction=west;fontSize=16;" parent="1" vertex="1">
          <mxGeometry x="323" y="2133" width="140" height="90" as="geometry" />
        </mxCell>
        <mxCell id="PO8PJyuL3kDX_Ksygov9-30" style="edgeStyle=orthogonalEdgeStyle;rounded=0;orthogonalLoop=1;jettySize=auto;html=1;entryX=0.5;entryY=1;entryDx=0;entryDy=0;exitX=0.5;exitY=0;exitDx=0;exitDy=0;" parent="1" source="PO8PJyuL3kDX_Ksygov9-22" target="UDIB14FkJ_S7tFAtck5r-72" edge="1">
          <mxGeometry relative="1" as="geometry">
            <mxPoint x="340" y="2170" as="sourcePoint" />
            <Array as="points">
              <mxPoint x="310" y="2178" />
              <mxPoint x="310" y="1840" />
              <mxPoint x="-212" y="1840" />
            </Array>
          </mxGeometry>
        </mxCell>
        <mxCell id="PO8PJyuL3kDX_Ksygov9-23" value="Has" style="text;html=1;align=center;verticalAlign=middle;resizable=0;points=[];autosize=1;strokeColor=none;fillColor=none;fontSize=16;rotation=90;" parent="1" vertex="1">
          <mxGeometry x="368.5" y="2163" width="50" height="30" as="geometry" />
        </mxCell>
        <mxCell id="PO8PJyuL3kDX_Ksygov9-37" value="&lt;font style=&quot;font-size: 20px;&quot;&gt;1&lt;/font&gt;" style="text;html=1;align=center;verticalAlign=middle;resizable=0;points=[];autosize=1;strokeColor=none;fillColor=none;" parent="1" vertex="1">
          <mxGeometry x="395" y="2070" width="30" height="40" as="geometry" />
        </mxCell>
        <mxCell id="PO8PJyuL3kDX_Ksygov9-38" value="&lt;font style=&quot;font-size: 20px;&quot;&gt;*&lt;/font&gt;" style="text;html=1;align=center;verticalAlign=middle;resizable=0;points=[];autosize=1;strokeColor=none;fillColor=none;" parent="1" vertex="1">
          <mxGeometry x="-250" y="1691" width="30" height="40" as="geometry" />
        </mxCell>
        <mxCell id="PO8PJyuL3kDX_Ksygov9-39" value="&lt;font style=&quot;font-size: 20px;&quot;&gt;*&lt;/font&gt;" style="text;html=1;align=center;verticalAlign=middle;resizable=0;points=[];autosize=1;strokeColor=none;fillColor=none;" parent="1" vertex="1">
          <mxGeometry x="-220" y="2123" width="30" height="40" as="geometry" />
        </mxCell>
        <mxCell id="PO8PJyuL3kDX_Ksygov9-40" value="&lt;font style=&quot;font-size: 20px;&quot;&gt;*&lt;/font&gt;" style="text;html=1;align=center;verticalAlign=middle;resizable=0;points=[];autosize=1;strokeColor=none;fillColor=none;" parent="1" vertex="1">
          <mxGeometry x="1102" y="1719" width="30" height="40" as="geometry" />
        </mxCell>
        <mxCell id="PO8PJyuL3kDX_Ksygov9-41" value="&lt;font style=&quot;font-size: 20px;&quot;&gt;*&lt;/font&gt;" style="text;html=1;align=center;verticalAlign=middle;resizable=0;points=[];autosize=1;strokeColor=none;fillColor=none;" parent="1" vertex="1">
          <mxGeometry x="882" y="2131" width="30" height="40" as="geometry" />
        </mxCell>
        <mxCell id="PO8PJyuL3kDX_Ksygov9-47" style="edgeStyle=orthogonalEdgeStyle;rounded=0;orthogonalLoop=1;jettySize=auto;html=1;exitX=1;exitY=0.5;exitDx=0;exitDy=0;entryX=0.5;entryY=1;entryDx=0;entryDy=0;" parent="1" source="PO8PJyuL3kDX_Ksygov9-44" target="UDIB14FkJ_S7tFAtck5r-102" edge="1">
          <mxGeometry relative="1" as="geometry" />
        </mxCell>
        <mxCell id="PO8PJyuL3kDX_Ksygov9-44" value="" style="shape=rhombus;perimeter=rhombusPerimeter;whiteSpace=wrap;html=1;align=center;rotation=90;direction=north;fontSize=16;" parent="1" vertex="1">
          <mxGeometry x="1562" y="1767" width="90" height="140" as="geometry" />
        </mxCell>
        <mxCell id="PO8PJyuL3kDX_Ksygov9-45" value="Has" style="text;html=1;align=center;verticalAlign=middle;resizable=0;points=[];autosize=1;strokeColor=none;fillColor=none;fontSize=16;rotation=0;" parent="1" vertex="1">
          <mxGeometry x="1582.5" y="1822" width="50" height="30" as="geometry" />
        </mxCell>
        <mxCell id="PO8PJyuL3kDX_Ksygov9-49" value="&lt;font style=&quot;font-size: 20px;&quot;&gt;1&lt;/font&gt;" style="text;html=1;align=center;verticalAlign=middle;resizable=0;points=[];autosize=1;strokeColor=none;fillColor=none;" parent="1" vertex="1">
          <mxGeometry x="1192" y="1719" width="30" height="40" as="geometry" />
        </mxCell>
        <mxCell id="PO8PJyuL3kDX_Ksygov9-50" value="&lt;font style=&quot;font-size: 20px;&quot;&gt;1...*&lt;/font&gt;" style="text;html=1;align=center;verticalAlign=middle;resizable=0;points=[];autosize=1;strokeColor=none;fillColor=none;" parent="1" vertex="1">
          <mxGeometry x="2040" y="1700" width="60" height="40" as="geometry" />
        </mxCell>
        <mxCell id="PO8PJyuL3kDX_Ksygov9-51" value="Attendance" style="shape=rhombus;perimeter=rhombusPerimeter;whiteSpace=wrap;html=1;align=center;rotation=90;direction=west;fontSize=16;" parent="1" vertex="1">
          <mxGeometry x="50" y="725" width="140" height="90" as="geometry" />
        </mxCell>
        <mxCell id="PO8PJyuL3kDX_Ksygov9-52" value="" style="endArrow=none;html=1;rounded=0;exitX=1;exitY=0.5;exitDx=0;exitDy=0;fontSize=16;entryX=0.5;entryY=1;entryDx=0;entryDy=0;endFill=1;startFill=0;startArrow=none;" parent="1" source="PO8PJyuL3kDX_Ksygov9-51" target="UDIB14FkJ_S7tFAtck5r-1" edge="1">
          <mxGeometry relative="1" as="geometry">
            <mxPoint x="-88" y="950" as="sourcePoint" />
            <mxPoint x="240" y="480" as="targetPoint" />
          </mxGeometry>
        </mxCell>
        <mxCell id="PO8PJyuL3kDX_Ksygov9-59" value="" style="endArrow=none;html=1;rounded=0;fontSize=16;" parent="1" edge="1">
          <mxGeometry relative="1" as="geometry">
            <mxPoint x="-180" y="1693" as="sourcePoint" />
            <mxPoint x="119" y="840" as="targetPoint" />
            <Array as="points">
              <mxPoint x="-180" y="1789" />
              <mxPoint x="130" y="1790" />
            </Array>
          </mxGeometry>
        </mxCell>
        <mxCell id="PO8PJyuL3kDX_Ksygov9-60" value="*" style="text;html=1;align=center;verticalAlign=middle;resizable=0;points=[];autosize=1;strokeColor=none;fillColor=none;fontSize=20;" parent="1" vertex="1">
          <mxGeometry x="105" y="663" width="30" height="40" as="geometry" />
        </mxCell>
        <mxCell id="PO8PJyuL3kDX_Ksygov9-61" value="*" style="text;html=1;align=center;verticalAlign=middle;resizable=0;points=[];autosize=1;strokeColor=none;fillColor=none;fontSize=20;" parent="1" vertex="1">
          <mxGeometry x="-182.5" y="1691" width="30" height="40" as="geometry" />
        </mxCell>
        <mxCell id="PO8PJyuL3kDX_Ksygov9-62" value="Quizig" style="shape=rhombus;perimeter=rhombusPerimeter;whiteSpace=wrap;html=1;align=center;rotation=90;direction=west;fontSize=16;" parent="1" vertex="1">
          <mxGeometry x="1082" y="765" width="140" height="90" as="geometry" />
        </mxCell>
        <mxCell id="PO8PJyuL3kDX_Ksygov9-63" value="*" style="text;html=1;align=center;verticalAlign=middle;resizable=0;points=[];autosize=1;strokeColor=none;fillColor=none;fontSize=20;" parent="1" vertex="1">
          <mxGeometry x="1137" y="685" width="30" height="40" as="geometry" />
        </mxCell>
        <mxCell id="PO8PJyuL3kDX_Ksygov9-64" value="" style="endArrow=none;html=1;rounded=0;exitX=1;exitY=0.5;exitDx=0;exitDy=0;fontSize=16;" parent="1" source="PO8PJyuL3kDX_Ksygov9-62" edge="1">
          <mxGeometry width="50" height="50" relative="1" as="geometry">
            <mxPoint x="737" y="500" as="sourcePoint" />
            <mxPoint x="380" y="350" as="targetPoint" />
          </mxGeometry>
        </mxCell>
        <mxCell id="PO8PJyuL3kDX_Ksygov9-65" value="" style="endArrow=none;html=1;rounded=0;exitX=0.5;exitY=0;exitDx=0;exitDy=0;fontSize=16;entryX=0;entryY=0.5;entryDx=0;entryDy=0;" parent="1" source="UDIB14FkJ_S7tFAtck5r-87" target="PO8PJyuL3kDX_Ksygov9-62" edge="1">
          <mxGeometry width="50" height="50" relative="1" as="geometry">
            <mxPoint x="1488" y="1291" as="sourcePoint" />
            <mxPoint x="796" y="900" as="targetPoint" />
          </mxGeometry>
        </mxCell>
        <mxCell id="PO8PJyuL3kDX_Ksygov9-66" value="*" style="text;html=1;align=center;verticalAlign=middle;resizable=0;points=[];autosize=1;strokeColor=none;fillColor=none;fontSize=20;" parent="1" vertex="1">
          <mxGeometry x="1160" y="883" width="30" height="40" as="geometry" />
        </mxCell>
        <mxCell id="PO8PJyuL3kDX_Ksygov9-68" value="&lt;font style=&quot;font-size: 20px;&quot;&gt;1...*&lt;/font&gt;" style="text;html=1;align=center;verticalAlign=middle;resizable=0;points=[];autosize=1;strokeColor=none;fillColor=none;" parent="1" vertex="1">
          <mxGeometry x="2140" y="1700" width="60" height="40" as="geometry" />
        </mxCell>
        <mxCell id="PO8PJyuL3kDX_Ksygov9-89" style="edgeStyle=orthogonalEdgeStyle;rounded=0;orthogonalLoop=1;jettySize=auto;html=1;exitX=1;exitY=0.5;exitDx=0;exitDy=0;entryX=0;entryY=0.5;entryDx=0;entryDy=0;" parent="1" source="PO8PJyuL3kDX_Ksygov9-70" target="PO8PJyuL3kDX_Ksygov9-87" edge="1">
          <mxGeometry relative="1" as="geometry" />
        </mxCell>
        <mxCell id="PO8PJyuL3kDX_Ksygov9-70" value="Submission" style="rounded=0;whiteSpace=wrap;html=1;fontSize=16;" parent="1" vertex="1">
          <mxGeometry x="-280" y="2494" width="120" height="60" as="geometry" />
        </mxCell>
        <mxCell id="PO8PJyuL3kDX_Ksygov9-72" value="ID" style="ellipse;whiteSpace=wrap;html=1;fontSize=16;" parent="1" vertex="1">
          <mxGeometry x="-405" y="2360" width="120" height="80" as="geometry" />
        </mxCell>
        <mxCell id="PO8PJyuL3kDX_Ksygov9-74" value="CreatedAt" style="ellipse;whiteSpace=wrap;html=1;fontSize=16;" parent="1" vertex="1">
          <mxGeometry x="-140" y="2360" width="120" height="80" as="geometry" />
        </mxCell>
        <mxCell id="PO8PJyuL3kDX_Ksygov9-75" value="" style="endArrow=none;html=1;rounded=0;exitX=0.5;exitY=0;exitDx=0;exitDy=0;fontSize=16;" parent="1" source="PO8PJyuL3kDX_Ksygov9-70" target="PO8PJyuL3kDX_Ksygov9-72" edge="1">
          <mxGeometry width="50" height="50" relative="1" as="geometry">
            <mxPoint x="-330" y="2494" as="sourcePoint" />
            <mxPoint x="-300" y="2400" as="targetPoint" />
          </mxGeometry>
        </mxCell>
        <mxCell id="PO8PJyuL3kDX_Ksygov9-78" value="" style="endArrow=none;html=1;rounded=0;exitX=0.5;exitY=0;exitDx=0;exitDy=0;entryX=0.065;entryY=0.801;entryDx=0;entryDy=0;entryPerimeter=0;fontSize=16;" parent="1" source="PO8PJyuL3kDX_Ksygov9-70" target="PO8PJyuL3kDX_Ksygov9-74" edge="1">
          <mxGeometry width="50" height="50" relative="1" as="geometry">
            <mxPoint x="-190" y="2584" as="sourcePoint" />
            <mxPoint x="-310" y="2584" as="targetPoint" />
          </mxGeometry>
        </mxCell>
        <mxCell id="PO8PJyuL3kDX_Ksygov9-90" style="edgeStyle=orthogonalEdgeStyle;rounded=0;orthogonalLoop=1;jettySize=auto;html=1;exitX=1;exitY=0.5;exitDx=0;exitDy=0;entryX=0.75;entryY=1;entryDx=0;entryDy=0;" parent="1" source="PO8PJyuL3kDX_Ksygov9-87" target="UDIB14FkJ_S7tFAtck5r-56" edge="1">
          <mxGeometry relative="1" as="geometry" />
        </mxCell>
        <mxCell id="PO8PJyuL3kDX_Ksygov9-87" value="" style="shape=rhombus;perimeter=rhombusPerimeter;whiteSpace=wrap;html=1;align=center;rotation=90;direction=north;fontSize=16;" parent="1" vertex="1">
          <mxGeometry x="345" y="2453" width="90" height="140" as="geometry" />
        </mxCell>
        <mxCell id="PO8PJyuL3kDX_Ksygov9-88" value="Has" style="text;html=1;align=center;verticalAlign=middle;resizable=0;points=[];autosize=1;strokeColor=none;fillColor=none;fontSize=16;rotation=0;" parent="1" vertex="1">
          <mxGeometry x="365.5" y="2508" width="50" height="30" as="geometry" />
        </mxCell>
        <mxCell id="PO8PJyuL3kDX_Ksygov9-91" value="&lt;font style=&quot;font-size: 20px;&quot;&gt;1...*&lt;/font&gt;" style="text;html=1;align=center;verticalAlign=middle;resizable=0;points=[];autosize=1;strokeColor=none;fillColor=none;" parent="1" vertex="1">
          <mxGeometry x="965" y="2126" width="60" height="40" as="geometry" />
        </mxCell>
        <mxCell id="PO8PJyuL3kDX_Ksygov9-92" value="Assignment&lt;div&gt;Submission&lt;/div&gt;" style="shape=rhombus;perimeter=rhombusPerimeter;whiteSpace=wrap;html=1;align=center;rotation=90;direction=west;fontSize=16;" parent="1" vertex="1">
          <mxGeometry x="-790" y="2280" width="140" height="90" as="geometry" />
        </mxCell>
        <mxCell id="PO8PJyuL3kDX_Ksygov9-94" value="" style="endArrow=none;html=1;rounded=0;exitX=1;exitY=0.5;exitDx=0;exitDy=0;fontSize=16;entryX=0.5;entryY=1;entryDx=0;entryDy=0;endFill=1;startFill=0;startArrow=none;" parent="1" source="PO8PJyuL3kDX_Ksygov9-92" edge="1">
          <mxGeometry relative="1" as="geometry">
            <mxPoint x="-730" y="2244" as="sourcePoint" />
            <mxPoint x="380" y="349" as="targetPoint" />
            <Array as="points">
              <mxPoint x="-720" y="1150" />
            </Array>
          </mxGeometry>
        </mxCell>
        <mxCell id="PO8PJyuL3kDX_Ksygov9-99" value="" style="endArrow=none;html=1;rounded=0;exitX=0.5;exitY=1;exitDx=0;exitDy=0;entryX=0.5;entryY=1;entryDx=0;entryDy=0;fontSize=16;" parent="1" source="PO8PJyuL3kDX_Ksygov9-92" target="UDIB14FkJ_S7tFAtck5r-124" edge="1">
          <mxGeometry width="50" height="50" relative="1" as="geometry">
            <mxPoint x="-482.5" y="2244" as="sourcePoint" />
            <mxPoint x="-382.5" y="2200" as="targetPoint" />
          </mxGeometry>
        </mxCell>
        <mxCell id="PO8PJyuL3kDX_Ksygov9-100" value="" style="endArrow=none;html=1;rounded=0;exitX=0;exitY=0.5;exitDx=0;exitDy=0;entryX=0;entryY=0.5;entryDx=0;entryDy=0;fontSize=16;" parent="1" source="PO8PJyuL3kDX_Ksygov9-92" target="PO8PJyuL3kDX_Ksygov9-70" edge="1">
          <mxGeometry width="50" height="50" relative="1" as="geometry">
            <mxPoint x="-740" y="2792" as="sourcePoint" />
            <mxPoint x="-285" y="2570" as="targetPoint" />
          </mxGeometry>
        </mxCell>
        <mxCell id="PO8PJyuL3kDX_Ksygov9-101" value="&lt;font style=&quot;font-size: 20px;&quot;&gt;*&lt;/font&gt;" style="text;html=1;align=center;verticalAlign=middle;resizable=0;points=[];autosize=1;strokeColor=none;fillColor=none;" parent="1" vertex="1">
          <mxGeometry x="-670" y="2260" width="30" height="40" as="geometry" />
        </mxCell>
        <mxCell id="PO8PJyuL3kDX_Ksygov9-102" value="&lt;font style=&quot;font-size: 20px;&quot;&gt;*&lt;/font&gt;" style="text;html=1;align=center;verticalAlign=middle;resizable=0;points=[];autosize=1;strokeColor=none;fillColor=none;" parent="1" vertex="1">
          <mxGeometry x="-760" y="2220" width="30" height="40" as="geometry" />
        </mxCell>
        <mxCell id="PO8PJyuL3kDX_Ksygov9-103" value="&lt;font style=&quot;font-size: 20px;&quot;&gt;1&lt;/font&gt;" style="text;html=1;align=center;verticalAlign=middle;resizable=0;points=[];autosize=1;strokeColor=none;fillColor=none;" parent="1" vertex="1">
          <mxGeometry x="-670" y="2370" width="30" height="40" as="geometry" />
        </mxCell>
        <mxCell id="PO8PJyuL3kDX_Ksygov9-105" value="Grade" style="ellipse;whiteSpace=wrap;html=1;fontSize=16;" parent="1" vertex="1">
          <mxGeometry x="-1040" y="2285" width="120" height="80" as="geometry" />
        </mxCell>
        <mxCell id="PO8PJyuL3kDX_Ksygov9-106" value="" style="endArrow=none;html=1;rounded=0;exitX=0.5;exitY=0;exitDx=0;exitDy=0;entryX=1;entryY=0.5;entryDx=0;entryDy=0;fontSize=16;" parent="1" source="PO8PJyuL3kDX_Ksygov9-92" target="PO8PJyuL3kDX_Ksygov9-105" edge="1">
          <mxGeometry width="50" height="50" relative="1" as="geometry">
            <mxPoint x="-1100" y="2414" as="sourcePoint" />
            <mxPoint x="-1190" y="2504" as="targetPoint" />
          </mxGeometry>
        </mxCell>
        <mxCell id="PO8PJyuL3kDX_Ksygov9-107" value="Grade" style="ellipse;whiteSpace=wrap;html=1;fontSize=16;" parent="1" vertex="1">
          <mxGeometry x="1320" y="770" width="120" height="80" as="geometry" />
        </mxCell>
        <mxCell id="PO8PJyuL3kDX_Ksygov9-108" value="" style="endArrow=none;html=1;rounded=0;exitX=0;exitY=0.5;exitDx=0;exitDy=0;fontSize=16;entryX=0.5;entryY=1;entryDx=0;entryDy=0;" parent="1" source="PO8PJyuL3kDX_Ksygov9-107" target="PO8PJyuL3kDX_Ksygov9-62" edge="1">
          <mxGeometry width="50" height="50" relative="1" as="geometry">
            <mxPoint x="1430" y="918.5" as="sourcePoint" />
            <mxPoint x="1230" y="843" as="targetPoint" />
          </mxGeometry>
        </mxCell>
        <mxCell id="PO8PJyuL3kDX_Ksygov9-109" value="Status" style="ellipse;whiteSpace=wrap;html=1;fontSize=16;" parent="1" vertex="1">
          <mxGeometry x="485" y="640" width="120" height="80" as="geometry" />
        </mxCell>
        <mxCell id="PO8PJyuL3kDX_Ksygov9-110" value="" style="endArrow=none;html=1;rounded=0;fontSize=16;entryX=0.5;entryY=1;entryDx=0;entryDy=0;exitX=0.5;exitY=1;exitDx=0;exitDy=0;" parent="1" source="PO8PJyuL3kDX_Ksygov9-109" target="PO8PJyuL3kDX_Ksygov9-1" edge="1">
          <mxGeometry width="50" height="50" relative="1" as="geometry">
            <mxPoint x="485" y="680" as="sourcePoint" />
            <mxPoint x="428.5" y="755" as="targetPoint" />
          </mxGeometry>
        </mxCell>
        <mxCell id="PO8PJyuL3kDX_Ksygov9-111" value="AttendAt" style="ellipse;whiteSpace=wrap;html=1;fontSize=16;" parent="1" vertex="1">
          <mxGeometry x="-110" y="823" width="120" height="80" as="geometry" />
        </mxCell>
        <mxCell id="PO8PJyuL3kDX_Ksygov9-112" value="" style="endArrow=none;html=1;rounded=0;fontSize=16;entryX=0.5;entryY=0;entryDx=0;entryDy=0;exitX=0.5;exitY=0;exitDx=0;exitDy=0;" parent="1" source="PO8PJyuL3kDX_Ksygov9-51" target="PO8PJyuL3kDX_Ksygov9-111" edge="1">
          <mxGeometry width="50" height="50" relative="1" as="geometry">
            <mxPoint x="-84.5" y="890" as="sourcePoint" />
            <mxPoint x="-132.5" y="990" as="targetPoint" />
          </mxGeometry>
        </mxCell>
        <mxCell id="PO8PJyuL3kDX_Ksygov9-121" value="" style="shape=rhombus;perimeter=rhombusPerimeter;whiteSpace=wrap;html=1;align=center;rotation=90;direction=west;fontSize=16;" parent="1" vertex="1">
          <mxGeometry x="857" y="748" width="140" height="90" as="geometry" />
        </mxCell>
        <mxCell id="PO8PJyuL3kDX_Ksygov9-122" value="Feedback" style="text;html=1;align=center;verticalAlign=middle;resizable=0;points=[];autosize=1;strokeColor=none;fillColor=none;fontSize=16;rotation=90;" parent="1" vertex="1">
          <mxGeometry x="882.5" y="778" width="90" height="30" as="geometry" />
        </mxCell>
        <mxCell id="PO8PJyuL3kDX_Ksygov9-125" value="Message" style="ellipse;whiteSpace=wrap;html=1;fontSize=16;" parent="1" vertex="1">
          <mxGeometry x="962" y="883" width="120" height="80" as="geometry" />
        </mxCell>
        <mxCell id="PO8PJyuL3kDX_Ksygov9-126" value="" style="endArrow=none;html=1;rounded=0;fontSize=16;entryX=0.5;entryY=1;entryDx=0;entryDy=0;exitX=0.5;exitY=0;exitDx=0;exitDy=0;" parent="1" source="PO8PJyuL3kDX_Ksygov9-125" target="PO8PJyuL3kDX_Ksygov9-121" edge="1">
          <mxGeometry width="50" height="50" relative="1" as="geometry">
            <mxPoint x="962" y="827" as="sourcePoint" />
            <mxPoint x="905.5" y="902" as="targetPoint" />
          </mxGeometry>
        </mxCell>
        <mxCell id="PO8PJyuL3kDX_Ksygov9-127" value="" style="endArrow=none;html=1;rounded=0;exitX=0.5;exitY=1;exitDx=0;exitDy=0;entryX=1;entryY=0.5;entryDx=0;entryDy=0;fontSize=16;" parent="1" source="UDIB14FkJ_S7tFAtck5r-1" target="PO8PJyuL3kDX_Ksygov9-121" edge="1">
          <mxGeometry relative="1" as="geometry">
            <mxPoint x="842" y="1125" as="sourcePoint" />
            <mxPoint x="830" y="765" as="targetPoint" />
          </mxGeometry>
        </mxCell>
        <mxCell id="PO8PJyuL3kDX_Ksygov9-128" value="" style="endArrow=none;html=1;rounded=0;fontSize=16;exitX=0.5;exitY=0;exitDx=0;exitDy=0;entryX=0.5;entryY=0;entryDx=0;entryDy=0;" parent="1" source="UDIB14FkJ_S7tFAtck5r-25" target="PO8PJyuL3kDX_Ksygov9-121" edge="1">
          <mxGeometry width="50" height="50" relative="1" as="geometry">
            <mxPoint x="813" y="1121" as="sourcePoint" />
            <mxPoint x="880" y="790" as="targetPoint" />
            <Array as="points">
              <mxPoint x="500" y="940" />
            </Array>
          </mxGeometry>
        </mxCell>
        <mxCell id="PO8PJyuL3kDX_Ksygov9-129" value="Status" style="ellipse;whiteSpace=wrap;html=1;fontSize=16;" parent="1" vertex="1">
          <mxGeometry x="742" y="883" width="120" height="80" as="geometry" />
        </mxCell>
        <mxCell id="PO8PJyuL3kDX_Ksygov9-130" value="" style="endArrow=none;html=1;rounded=0;fontSize=16;exitX=0;exitY=0.5;exitDx=0;exitDy=0;entryX=1;entryY=0.5;entryDx=0;entryDy=0;" parent="1" source="PO8PJyuL3kDX_Ksygov9-121" target="PO8PJyuL3kDX_Ksygov9-129" edge="1">
          <mxGeometry width="50" height="50" relative="1" as="geometry">
            <mxPoint x="1022" y="883" as="sourcePoint" />
            <mxPoint x="910" y="1020" as="targetPoint" />
          </mxGeometry>
        </mxCell>
        <mxCell id="PO8PJyuL3kDX_Ksygov9-131" value="*" style="text;html=1;align=center;verticalAlign=middle;resizable=0;points=[];autosize=1;strokeColor=none;fillColor=none;fontSize=20;" parent="1" vertex="1">
          <mxGeometry x="850" y="765" width="30" height="40" as="geometry" />
        </mxCell>
        <mxCell id="PO8PJyuL3kDX_Ksygov9-132" value="*" style="text;html=1;align=center;verticalAlign=middle;resizable=0;points=[];autosize=1;strokeColor=none;fillColor=none;fontSize=20;" parent="1" vertex="1">
          <mxGeometry x="895" y="660" width="30" height="40" as="geometry" />
        </mxCell>
        <mxCell id="PO8PJyuL3kDX_Ksygov9-133" value="StartDate" style="ellipse;whiteSpace=wrap;html=1;fontSize=16;" parent="1" vertex="1">
          <mxGeometry x="145" y="1290" width="120" height="80" as="geometry" />
        </mxCell>
        <mxCell id="PO8PJyuL3kDX_Ksygov9-134" value="EndDate" style="ellipse;whiteSpace=wrap;html=1;fontSize=16;" parent="1" vertex="1">
          <mxGeometry x="190" y="1390" width="120" height="80" as="geometry" />
        </mxCell>
        <mxCell id="PO8PJyuL3kDX_Ksygov9-135" value="Status" style="ellipse;whiteSpace=wrap;html=1;fontSize=16;" parent="1" vertex="1">
          <mxGeometry x="470" y="1340" width="120" height="80" as="geometry" />
        </mxCell>
        <mxCell id="PO8PJyuL3kDX_Ksygov9-136" value="" style="endArrow=none;html=1;rounded=0;exitX=1;exitY=0;exitDx=0;exitDy=0;entryX=0;entryY=0.5;entryDx=0;entryDy=0;fontSize=16;" parent="1" source="PO8PJyuL3kDX_Ksygov9-133" target="UDIB14FkJ_S7tFAtck5r-25" edge="1">
          <mxGeometry width="50" height="50" relative="1" as="geometry">
            <mxPoint x="278.45" y="1388.21" as="sourcePoint" />
            <mxPoint x="242.45" y="1331.21" as="targetPoint" />
          </mxGeometry>
        </mxCell>
        <mxCell id="PO8PJyuL3kDX_Ksygov9-137" value="" style="endArrow=none;html=1;rounded=0;exitX=0.592;exitY=0.026;exitDx=0;exitDy=0;entryX=0;entryY=0.5;entryDx=0;entryDy=0;fontSize=16;exitPerimeter=0;" parent="1" source="PO8PJyuL3kDX_Ksygov9-134" target="UDIB14FkJ_S7tFAtck5r-25" edge="1">
          <mxGeometry width="50" height="50" relative="1" as="geometry">
            <mxPoint x="278.45" y="1388.21" as="sourcePoint" />
            <mxPoint x="242.45" y="1331.21" as="targetPoint" />
          </mxGeometry>
        </mxCell>
        <mxCell id="PO8PJyuL3kDX_Ksygov9-138" value="" style="endArrow=none;html=1;rounded=0;entryX=0.5;entryY=1;entryDx=0;entryDy=0;fontSize=16;exitX=0.5;exitY=0;exitDx=0;exitDy=0;" parent="1" source="PO8PJyuL3kDX_Ksygov9-135" target="UDIB14FkJ_S7tFAtck5r-25" edge="1">
          <mxGeometry width="50" height="50" relative="1" as="geometry">
            <mxPoint x="202" y="1387" as="sourcePoint" />
            <mxPoint x="302" y="1371" as="targetPoint" />
          </mxGeometry>
        </mxCell>
      </root>
    </mxGraphModel>
  </diagram>
</mxfile>
